<?xml version="1.0" encoding="UTF-8"?>
<svg version="1.1" xmlns="http://www.w3.org/2000/svg" width="512" height="512">
<path d="M0 0 C1.27069163 0.00138269 1.27069163 0.00138269 2.56705379 0.00279331 C4.01752149 0.00072707 4.01752149 0.00072707 5.49729156 -0.00138092 C6.57105514 0.00221719 7.64481871 0.0058153 8.75112057 0.00952244 C9.89114245 0.0094019 11.03116434 0.00928137 12.20573235 0.00915718 C15.91546132 0.00990673 19.62514076 0.01753691 23.3348608 0.02539158 C25.61737195 0.02686087 27.89988343 0.02788166 30.18239498 0.02844334 C38.66941996 0.03369776 47.15643774 0.04765881 55.64345455 0.06054783 C84.07501705 0.09148533 84.07501705 0.09148533 113.08095455 0.12304783 C113.08095455 38.73304783 113.08095455 77.34304783 113.08095455 117.12304783 C99.22192135 116.05409275 85.36288815 114.98513767 71.08388424 113.88379002 C62.35330091 113.71456764 53.93109032 113.57907514 45.26882076 114.2337656 C44.21407438 114.31337172 43.15932801 114.39297784 42.07261962 114.47499627 C4.33453224 117.77881983 -20.28132239 144.99718054 -45.25677983 171.01323266 C-50.53319716 176.50313981 -55.89892162 181.89040027 -61.3321085 187.22506046 C-62.11852325 187.99737778 -62.90493801 188.76969509 -63.71518351 189.56541596 C-65.31541401 191.13621823 -66.91584252 192.70681881 -68.51646629 194.27722034 C-83.36046497 208.86163502 -97.91417955 223.70956982 -112.37668553 238.67107329 C-124.67333621 251.3787109 -137.19156719 263.82546103 -149.90537357 276.11523533 C-164.8302871 290.54256841 -179.58775902 305.1141656 -194.12580705 319.93199706 C-195.68936136 321.52484382 -197.25310241 323.11750729 -198.81703281 324.70998478 C-199.58552201 325.49266732 -200.3540112 326.27534986 -201.14578794 327.08175005 C-206.45581235 332.46973405 -211.86250541 337.74560668 -217.31945896 342.98429203 C-243.98945 368.67489941 -268.89627916 392.72754099 -271.80832767 431.31091404 C-271.88225969 432.28911525 -271.9561917 433.26731646 -272.03236407 434.27516013 C-273.40822689 455.92694963 -270.5805547 477.58153285 -268.91904545 499.12304783 C-307.19904545 499.12304783 -345.47904545 499.12304783 -384.91904545 499.12304783 C-384.91904545 460.84304783 -384.91904545 422.56304783 -384.91904545 383.12304783 C-371.06001225 384.19200291 -357.20097904 385.26095798 -342.92197514 386.36230564 C-334.19139181 386.53152802 -325.76918122 386.66702052 -317.10691166 386.01233006 C-316.05216528 385.93272394 -314.9974189 385.85311782 -313.91071051 385.77109939 C-276.17262313 382.46727582 -251.55676851 355.24891511 -226.58131106 329.23286299 C-221.30489373 323.74295585 -215.93916927 318.35569539 -210.5059824 313.02103519 C-209.71956764 312.24871788 -208.93315289 311.47640056 -208.12290739 310.68067969 C-206.52267688 309.10987743 -204.92224838 307.53927685 -203.32162461 305.96887532 C-188.47762593 291.38446063 -173.92391135 276.53652584 -159.46140537 261.57502237 C-147.16475469 248.86738476 -134.64652371 236.42063463 -121.93271732 224.13086033 C-107.0078038 209.70352725 -92.25033188 195.13193005 -77.71228385 180.3140986 C-76.14872954 178.72125184 -74.58498848 177.12858837 -73.02105808 175.53611088 C-72.25256889 174.75342834 -71.4840797 173.9707458 -70.69230296 173.16434561 C-65.38227854 167.77636161 -59.97558544 162.50048903 -54.51863194 157.26180363 C-24.10611548 127.96610079 -0.97438239 103.18427943 0.36921118 59.24570118 C0.6693718 41.58648293 -0.39080009 23.88641893 -2.44180198 6.34850876 C-2.63833111 4.61051535 -2.78444462 2.86693069 -2.91904545 1.12304783 C-1.91904545 0.12304783 -1.91904545 0.12304783 0 0 Z " fill="#47558C" transform="translate(391.9190454483032,5.876952171325684)"/>
<path d="M0 0 C14.89125 -0.020625 29.7825 -0.04125 45.125 -0.0625 C49.77996582 -0.071604 54.43493164 -0.08070801 59.23095703 -0.09008789 C65.03491211 -0.09460449 65.03491211 -0.09460449 67.77511597 -0.09544373 C69.63831829 -0.09695227 71.5015198 -0.1004108 73.36471558 -0.10557556 C87.27133581 -0.14210578 101.11341462 0.24622571 115 1 C115.8056449 15.84218382 116.13885468 30.62979582 116.09765625 45.4921875 C116.09617921 47.31648732 116.09516321 49.14078756 116.09460449 50.96508789 C116.0894399 57.60173188 116.07547967 64.23836669 116.0625 70.875 C116.041875 85.76625 116.02125 100.6575 116 116 C77.72 116 39.44 116 0 116 C0 77.72 0 39.44 0 0 Z " fill="#46558B" transform="translate(7,389)"/>
<path d="M0 0 C0 7.26 0 14.52 0 22 C7.26 22 14.52 22 22 22 C20.04921798 25.90156404 18.33813967 27.91240208 15.29292297 30.95875931 C14.8083396 31.44624956 14.32375623 31.93373981 13.82448852 32.43600249 C12.19280415 34.07500959 10.55406317 35.70677382 8.9152832 37.33868408 C7.73486509 38.52140571 6.55488348 39.70456311 5.37530231 40.88811946 C2.12733685 44.14445627 -1.12686467 47.39449857 -4.38210821 50.64355755 C-7.88947878 54.1464143 -11.39110347 57.65500668 -14.89346313 61.16287231 C-21.75705253 68.03536825 -28.62605429 74.90243001 -35.4969933 81.7675772 C-41.07840358 87.34447669 -46.65786597 92.92331794 -52.2359314 98.50356293 C-53.02883629 99.29677428 -53.82174117 100.08998564 -54.63867348 100.9072337 C-56.24924544 102.51844508 -57.85981289 104.12966096 -59.4703759 105.74088129 C-74.58221527 120.85842747 -89.70018562 135.96983055 -104.82024753 151.0791522 C-117.80714447 164.05710986 -130.78878371 177.04030733 -143.76660156 190.02734375 C-158.82376603 205.09519873 -173.88415355 220.15982003 -188.9497385 235.21925616 C-190.55451941 236.82339994 -192.15929613 238.42754792 -193.7640686 240.03170013 C-194.94856481 241.21573351 -194.94856481 241.21573351 -196.15699023 242.42368676 C-201.73438779 247.99935398 -207.30945397 253.57734588 -212.88363647 259.15622711 C-219.6707321 265.9489179 -226.46135076 272.73806251 -233.25658393 279.52261308 C-236.72662871 282.98738322 -240.19502108 286.45376714 -243.65913773 289.92446518 C-246.82527931 293.09653125 -249.99593662 296.26400685 -253.17038596 299.42775831 C-254.32284375 300.57796715 -255.47358804 301.72989572 -256.62251127 302.88363519 C-258.17478208 304.44191701 -259.73297486 305.99401484 -261.29292297 307.54460526 C-262.1598795 308.41123708 -263.02683603 309.27786891 -263.92006397 310.1707623 C-266 312 -266 312 -268 312 C-268 304.74 -268 297.48 -268 290 C-275.26 290 -282.52 290 -290 290 C-288.04921798 286.09843596 -286.33813967 284.08759792 -283.29292297 281.04124069 C-282.56604792 280.31000532 -282.56604792 280.31000532 -281.82448852 279.56399751 C-280.19280415 277.92499041 -278.55406317 276.29322618 -276.9152832 274.66131592 C-275.73486509 273.47859429 -274.55488348 272.29543689 -273.37530231 271.11188054 C-270.12733685 267.85554373 -266.87313533 264.60550143 -263.61789179 261.35644245 C-260.11052122 257.8535857 -256.60889653 254.34499332 -253.10653687 250.83712769 C-246.24294747 243.96463175 -239.37394571 237.09756999 -232.5030067 230.2324228 C-226.92159642 224.65552331 -221.34213403 219.07668206 -215.7640686 213.49643707 C-214.97116371 212.70322572 -214.17825883 211.91001436 -213.36132652 211.0927663 C-211.75075456 209.48155492 -210.14018711 207.87033904 -208.5296241 206.25911871 C-193.41778473 191.14157253 -178.29981438 176.03016945 -163.17975247 160.9208478 C-150.19285553 147.94289014 -137.21121629 134.95969267 -124.23339844 121.97265625 C-109.17623397 106.90480127 -94.11584645 91.84017997 -79.0502615 76.78074384 C-77.44548059 75.17660006 -75.84070387 73.57245208 -74.2359314 71.96829987 C-73.44626726 71.17894428 -72.65660312 70.38958869 -71.84300977 69.57631324 C-66.26561221 64.00064602 -60.69054603 58.42265412 -55.11636353 52.84377289 C-48.3292679 46.0510821 -41.53864924 39.26193749 -34.74341607 32.47738692 C-31.27337129 29.01261678 -27.80497892 25.54623286 -24.34086227 22.07553482 C-21.17472069 18.90346875 -18.00406338 15.73599315 -14.82961404 12.57224169 C-13.67715625 11.42203285 -12.52641196 10.27010428 -11.37748873 9.11636481 C-9.82521792 7.55808299 -8.26702514 6.00598516 -6.70707703 4.45539474 C-5.40664223 3.15544701 -5.40664223 3.15544701 -4.07993603 1.8292377 C-2 0 -2 0 0 0 Z " fill="#4FC4FE" transform="translate(390,100)"/>
</svg>
