<?xml version="1.0" encoding="UTF-8"?>
<svg version="1.1" xmlns="http://www.w3.org/2000/svg" width="64" height="64">
<path d="M0 0 C3.75462176 0.41487533 6.09282413 2.16441758 9.078125 4.3125 C10.40430197 5.2319827 11.73259184 6.14842228 13.0625 7.0625 C14.17915039 7.83207031 14.17915039 7.83207031 15.31835938 8.6171875 C20.25480244 11.95168756 25.30138498 15.11656504 30.328125 18.3125 C32.48476498 19.69340155 34.6410219 21.07490155 36.796875 22.45703125 C40.43138846 24.7856052 44.07541268 27.09680284 47.734375 29.38671875 C49.09936947 30.25716811 50.46398976 31.1282047 51.828125 32 C52.43849609 32.37318359 53.04886719 32.74636719 53.67773438 33.13085938 C56.38977971 34.88646742 57.69200245 35.91944614 58.765625 39.01953125 C58.78625 39.77621094 58.806875 40.53289063 58.828125 41.3125 C57.07294394 43.06768106 54.60462785 42.44010783 52.22265625 42.44189453 C51.02471436 42.44504669 49.82677246 42.44819885 48.5925293 42.45144653 C47.28840088 42.4494223 45.98427246 42.44739807 44.640625 42.4453125 C43.29923485 42.4459856 41.95784481 42.44695568 40.61645508 42.44821167 C37.80190879 42.44968836 34.98739418 42.44753504 32.17285156 42.44287109 C28.55771869 42.43717381 24.94266005 42.44045297 21.32752991 42.44644356 C18.55667558 42.45004997 15.78583898 42.44891022 13.01498413 42.44631577 C11.03122917 42.44532033 9.04747353 42.44836741 7.0637207 42.45144653 C5.86577881 42.44829437 4.66783691 42.44514221 3.43359375 42.44189453 C2.37293701 42.44109894 1.31228027 42.44030334 0.21948242 42.43948364 C-2.171875 42.3125 -2.171875 42.3125 -3.171875 41.3125 C-3.27297853 38.3671443 -3.31156779 35.4457244 -3.3046875 32.5 C-3.30564423 31.61594482 -3.30660095 30.73188965 -3.30758667 29.82104492 C-3.30826851 27.94807871 -3.30641393 26.07511014 -3.30224609 24.20214844 C-3.29689789 21.32481612 -3.30219093 18.44763992 -3.30859375 15.5703125 C-3.30793297 13.75520799 -3.30665181 11.94010357 -3.3046875 10.125 C-3.30671173 9.25834717 -3.30873596 8.39169434 -3.31082153 7.4987793 C-3.28305026 0.47238133 -3.28305026 0.47238133 0 0 Z " fill="#7FA9FD" transform="translate(4.171875,10.6875)"/>
<path d="M0 0 C3.75462176 0.41487533 6.09282413 2.16441758 9.078125 4.3125 C10.40430197 5.2319827 11.73259184 6.14842228 13.0625 7.0625 C14.17915039 7.83207031 14.17915039 7.83207031 15.31835938 8.6171875 C20.25480244 11.95168756 25.30138498 15.11656504 30.328125 18.3125 C32.48476498 19.69340155 34.6410219 21.07490155 36.796875 22.45703125 C40.43138846 24.7856052 44.07541268 27.09680284 47.734375 29.38671875 C49.09936947 30.25716811 50.46398976 31.1282047 51.828125 32 C52.43849609 32.37318359 53.04886719 32.74636719 53.67773438 33.13085938 C56.38977971 34.88646742 57.69200245 35.91944614 58.765625 39.01953125 C58.78625 39.77621094 58.806875 40.53289063 58.828125 41.3125 C57.07294394 43.06768106 54.60462785 42.44010783 52.22265625 42.44189453 C51.02471436 42.44504669 49.82677246 42.44819885 48.5925293 42.45144653 C47.28840088 42.4494223 45.98427246 42.44739807 44.640625 42.4453125 C43.29923485 42.4459856 41.95784481 42.44695568 40.61645508 42.44821167 C37.80190879 42.44968836 34.98739418 42.44753504 32.17285156 42.44287109 C28.55771869 42.43717381 24.94266005 42.44045297 21.32752991 42.44644356 C18.55667558 42.45004997 15.78583898 42.44891022 13.01498413 42.44631577 C11.03122917 42.44532033 9.04747353 42.44836741 7.0637207 42.45144653 C5.86577881 42.44829437 4.66783691 42.44514221 3.43359375 42.44189453 C2.37293701 42.44109894 1.31228027 42.44030334 0.21948242 42.43948364 C-2.171875 42.3125 -2.171875 42.3125 -3.171875 41.3125 C-3.27297853 38.3671443 -3.31156779 35.4457244 -3.3046875 32.5 C-3.30564423 31.61594482 -3.30660095 30.73188965 -3.30758667 29.82104492 C-3.30826851 27.94807871 -3.30641393 26.07511014 -3.30224609 24.20214844 C-3.29689789 21.32481612 -3.30219093 18.44763992 -3.30859375 15.5703125 C-3.30793297 13.75520799 -3.30665181 11.94010357 -3.3046875 10.125 C-3.30671173 9.25834717 -3.30873596 8.39169434 -3.31082153 7.4987793 C-3.28305026 0.47238133 -3.28305026 0.47238133 0 0 Z M1.828125 3.3125 C1.828125 15.5225 1.828125 27.7325 1.828125 40.3125 C19.978125 40.3125 38.128125 40.3125 56.828125 40.3125 C55.56687854 36.52876063 54.30448712 36.06417048 50.96484375 33.9765625 C49.94197266 33.33050049 48.91910156 32.68443848 47.86523438 32.01879883 C46.75986328 31.33197021 45.65449219 30.6451416 44.515625 29.9375 C43.37897714 29.22317167 42.24291375 28.50791251 41.10742188 27.79174805 C39.374449 26.69875328 37.64118329 25.6062742 35.90597534 24.51683044 C29.70181154 20.61877974 23.57696738 16.60151973 17.46362305 12.56298828 C16.71765869 12.07427246 15.97169434 11.58555664 15.203125 11.08203125 C14.25566406 10.45711792 14.25566406 10.45711792 13.2890625 9.81958008 C9.54264827 7.52527303 5.66839894 5.44598552 1.828125 3.3125 Z " fill="#2C4870" transform="translate(4.171875,10.6875)"/>
<path d="M0 0 C0.99 0 1.98 0 3 0 C3 12.54 3 25.08 3 38 C20.82 38 38.64 38 57 38 C57 38.33 57 38.66 57 39 C38.19 39 19.38 39 0 39 C0 26.13 0 13.26 0 0 Z " fill="#4D6EA4" transform="translate(3,13)"/>
<path d="M0 0 C0.99 0 1.98 0 3 0 C3 6.6 3 13.2 3 20 C2.34 20 1.68 20 1 20 C-0.14982602 15.90996141 -0.11094256 11.96822949 -0.0625 7.75 C-0.05798828 7.00492188 -0.05347656 6.25984375 -0.04882812 5.4921875 C-0.03709246 3.6614236 -0.0191585 1.83070127 0 0 Z " fill="#6388C4" transform="translate(3,13)"/>
<path d="M0 0 C1.2065625 0.0309375 1.2065625 0.0309375 2.4375 0.0625 C2.1075 1.0525 1.7775 2.0425 1.4375 3.0625 C0.4475 3.0625 -0.5425 3.0625 -1.5625 3.0625 C-1.8925 15.2725 -2.2225 27.4825 -2.5625 40.0625 C-2.8925 40.0625 -3.2225 40.0625 -3.5625 40.0625 C-3.58714775 34.52661467 -3.60533496 28.990761 -3.61743164 23.45483398 C-3.62247244 21.5700627 -3.62930498 19.68529535 -3.63793945 17.80053711 C-3.65001617 15.09748364 -3.65573068 12.39448169 -3.66015625 9.69140625 C-3.66531754 8.84349014 -3.67047882 7.99557404 -3.67579651 7.1219635 C-3.67599195 5.10178932 -3.62456211 3.08172066 -3.5625 1.0625 C-2.5625 0.0625 -2.5625 0.0625 0 0 Z " fill="#274066" transform="translate(4.5625,10.9375)"/>
</svg>
